# xmcd
#
# Track frame offsets: 
#        181
#        17632
#        44976
#        70666
#        95634
#        123665
#        148319
#        172562
#        193468
#        218426
#        242389
#        263387
#        291119
#
# Disc length: 4133 seconds
#
# Revision: 2
# Processed by: cddbd v1.5.2PL0 Copyright (c) Steve Scherf et al.
# Submitted via: ExactAudioCopy v0.99pb5
#
DISCID=bd10230d
DTITLE=Spanish Harlem Orchestra - Unidos Con Swing - United We Swing
DYEAR=2007
DGENRE=Latin
TTITLE0=SHO Intro
TTITLE1=Llegó La Orquestra
TTITLE2=En El Tiempo Del Palladium
TTITLE3=Se Formó la Rumba
TTITLE4=Sácala Bailar
TTITLE5=Ahora Sí
TTITLE6=Que Bonito
TTITLE7=Salsa Pa'l Bailador
TTITLE8=Mujer Divina
TTITLE9=Soy Candela
TTITLE10=Plena Con Sabor
TTITLE11=Danzón For My Father
TTITLE12=Late In The Evening - Tarde En La Noche
EXTD=
EXTT0=
EXTT1=
EXTT2=
EXTT3=
EXTT4=
EXTT5=
EXTT6=
EXTT7=
EXTT8=
EXTT9=
EXTT10=
EXTT11=
EXTT12=
PLAYORDER=
